<svg xmlns="http://www.w3.org/2000/svg" width="24" height="24" viewBox="0 0 24 24" fill="none">
  <g clip-path="url(#clip0_2_147)">
    <path d="M18.8064 13.7095L18.4518 13.736L18.6689 13.7101H12.4128C12.0817 13.7101 11.7856 13.9175 11.6723 14.2287L10.81 16.5961C10.775 16.6925 10.6828 16.7571 10.5802 16.7571H1.12461L0.935868 17.2756L0.0367952 19.7467C-0.10491 20.1363 0.183324 20.5481 0.598188 20.5481H17.557C18.9897 20.5481 20.2699 19.6521 20.7601 18.3056L21.1924 17.1171C21.7954 15.4612 20.5689 13.7095 18.8064 13.7095ZM20.8391 17.0296L20.42 18.1814C19.9834 19.3801 18.8329 20.1857 17.557 20.1857H0.597585C0.487236 20.1857 0.42573 20.1158 0.404625 20.085C0.38352 20.0549 0.338295 19.9735 0.376284 19.8691L1.23375 17.5126H10.7509C10.804 17.5126 10.8552 17.5066 10.9059 17.4963H11.0156C11.1676 17.4963 11.3038 17.4011 11.3557 17.2582L11.3931 17.155C11.4202 17.111 11.4437 17.0646 11.4618 17.0145L12.3386 14.6074C12.3706 14.5205 12.4483 14.4584 12.54 14.4476L14.4835 14.2136C14.9797 14.1539 15.4784 14.1201 15.9777 14.1129L18.819 14.0707C19.545 14.0749 20.1987 14.4235 20.6081 15.0265C21.0067 15.6132 21.0809 16.3627 20.8385 17.029L20.8391 17.0296Z" fill="white"/>
    <path d="M21.459 3.451866H6.38698C6.13614 3.451866 5.91182 3.608646 5.82559 3.845022L4.862 6.49279L4.58643 7.24956H13.869C14.0354 7.24956 14.1512 7.41478 14.0939 7.57096L13.4716 9.28107C13.2931 9.77131 13.6561 10.28989 14.1783 10.28989H20.2089C21.6417 10.28989 22.9218 9.39383 23.4121 8.04733L23.8444 6.85882C24.4474 5.20298 23.2209 3.451263 21.4584 3.451263L21.459 3.451866ZM23.4917 6.77198L23.0726 7.92432C22.6366 9.12127 21.4891 9.92628 20.2156 9.92869H18.2215C17.6275 9.92869 17.0336 9.8913 16.4438 9.81774L14.4883 9.57232C14.3333 9.55302 14.2362 9.39443 14.2899 9.2473L14.9206 7.51428C15.1009 7.01801 14.7337 6.4934 14.2055 6.4934H5.24731L6.16629 3.96924C6.20005 3.876378 6.28869 3.814269 6.38759 3.814269H21.4596C22.1753 3.814269 22.8217 4.14833 23.2354 4.73204C23.6491 5.31574 23.7407 6.09059 23.4923 6.77259L23.4917 6.77198Z" fill="white"/>
    <path d="M3.16394 14.0876H8.41908C8.73566 14.0876 9.01847 13.8892 9.12701 13.5919L10.0858 10.95862C10.2709 10.45029 9.89402 9.91241 9.35313 9.91241H4.15105C3.82965 9.91241 3.54323 10.11321 3.43348 10.41471L2.46144 13.0836C2.28356 13.572 2.64536 14.0882 3.16454 14.0882L3.16394 14.0876ZM3.29419 13.0076L4.08954 10.82174C4.12331 10.72948 4.21075 10.66858 4.30843 10.66858H9.0456C9.21082 10.66858 9.326 10.83259 9.26931 10.98817L8.47456 13.1716C8.43959 13.2675 8.34853 13.3308 8.24723 13.3308H3.52031C3.35328 13.3308 3.2369 13.165 3.29419 13.0076Z" fill="white"/>
  </g>
  <defs>
    <clipPath id="clip0_2_147">
      <rect width="24" height="24" fill="white"/>
    </clipPath>
  </defs>
</svg>