<svg xmlns="http://www.w3.org/2000/svg" width="162" height="39" viewBox="0 0 162 39" fill="none">
  <g clip-path="url(#clip0_2_111)">
    <path d="M35.3022 38.5661H5.66784C3.81801 38.5661 2.08237 37.6954 1.02328 36.2398C-0.0357986 34.7841 -0.292719 32.9165 0.338163 31.2439L10.6978 3.86429C11.5113 1.71654 13.6524 0.274643 16.0274 0.274643H42.2847C44.891 0.274643 47.406 1.37323 49.1302 3.24084L49.3272 2.16422H59.8752C61.2597 2.16422 62.4415 2.36471 63.4835 2.77943C63.7889 2.90028 64.0858 3.04309 64.3713 3.20514L65.0279 2.16422H75.4103L75.6758 3.15845C75.7357 3.13098 75.7928 3.10352 75.8528 3.07605C77.4114 2.37021 79.1613 2.01316 81.0511 2.01316C81.8333 2.01316 82.664 2.03239 83.4491 2.16422H137.508L126.994 14.1032H161.23L158.975 26.4046H153.974L152.101 36.6215H105.316C104.268 36.8083 103.169 36.8248 102.042 36.8248C101.134 36.8248 100.257 36.7561 99.4352 36.6215H87.6968L87.0802 34.092H86.6006L85.0363 36.6215H57.9511C57.9055 36.6215 57.8626 36.6215 57.817 36.6215H42.8157L43.044 35.3801C42.5588 35.869 42.0221 36.3139 41.4397 36.7039C39.6299 37.9206 37.5088 38.5661 35.3022 38.5661ZM3.78946 23.7323L0.877696 31.4307C0.309617 32.933 0.53799 34.6139 1.49145 35.9239C2.44491 37.234 4.00642 38.0168 5.66784 38.0168H35.3022C37.3918 38.0168 39.4015 37.407 41.1143 36.2535C41.9364 35.6987 42.6644 35.0341 43.281 34.2788L43.7863 34.4958L43.4979 36.0722H57.8198C57.9768 36.0722 58.131 36.0695 58.2851 36.064L58.6334 36.053V36.0722H84.7137L86.278 33.5427H87.5341L88.1507 36.0722H99.5094C100.306 36.2096 101.159 36.2755 102.042 36.2755C103.149 36.2755 104.228 36.259 105.236 36.0777L105.29 36.0722H151.621L153.494 25.8553H158.496L160.548 14.6525H125.758L136.272 2.71352L83.3691 2.70802C82.6212 2.57894 81.8105 2.56246 81.0483 2.56246C79.2441 2.56246 77.577 2.90302 76.0926 3.57316C75.9327 3.64457 75.7729 3.72147 75.6187 3.80112L75.299 3.96591L74.965 2.71352H65.3476L64.554 3.96866L64.3085 3.81485C63.9831 3.61161 63.6319 3.43309 63.2637 3.28753C62.2931 2.90028 61.1826 2.71352 59.8752 2.71352H49.8068L49.4728 4.53443L49.0788 4.04007C47.4659 2.02415 44.9281 0.823939 42.2847 0.823939H16.0274C13.8921 0.823939 11.9652 2.12028 11.2344 4.0538L3.78946 23.7323Z" fill="white"/>
    <path d="M60.4773 16.3635C61.0368 16.1328 61.4765 15.806 61.7962 15.383C62.1131 14.9601 62.3243 14.4657 62.4271 13.9027C62.5555 13.1968 62.4071 12.6283 61.9789 12.1971C61.5507 11.7632 60.8113 11.527 59.7637 11.4885L59.7922 11.3375C60.7628 11.2963 61.4822 11.0656 61.9532 10.6426C62.4242 10.2196 62.7182 9.68682 62.8353 9.0414C62.9323 8.50858 62.8895 8.0609 62.704 7.69837C62.5184 7.33583 62.193 7.06119 61.7248 6.87442C61.2567 6.68766 60.64 6.59428 59.8778 6.59428H53.1922L51.3367 16.7123H58.3849C59.2213 16.7123 59.9207 16.597 60.4802 16.3663L60.4773 16.3635ZM55.6558 9.14576H59.0157C59.3183 9.14576 59.5267 9.1952 59.6409 9.29682C59.7522 9.39844 59.7894 9.56323 59.7465 9.79393C59.7037 10.0246 59.6209 10.1894 59.501 10.2856C59.3783 10.3817 59.167 10.4284 58.8616 10.4284H55.4246L55.6586 9.14576H55.6558ZM54.9935 12.7546H58.7303C59.0957 12.7546 59.3355 12.7986 59.4439 12.8892C59.5524 12.9798 59.581 13.1666 59.5296 13.4467C59.4782 13.7296 59.3783 13.9164 59.2298 14.0125C59.0814 14.1086 58.8302 14.1553 58.4733 14.1553H54.7366L54.9935 12.7519V12.7546Z" fill="url(#paint0_linear_2_111)"/>
    <path d="M64.5367 16.7123L65.6957 14.8392H70.6885L71.1452 16.7123H74.5366L71.8389 6.59428H67.6169L61.2253 16.7123H64.5367ZM68.1507 10.8678L69.1384 9.16224H69.3411L69.7179 10.8678L70.0633 12.2877H67.2686L68.145 10.8678H68.1507Z" fill="url(#paint1_linear_2_111)"/>
    <path d="M76.1324 16.2207C76.9231 16.6492 77.9251 16.8634 79.1383 16.8634C80.3516 16.8634 81.365 16.6931 82.2699 16.3498C83.1748 16.0065 83.9113 15.5121 84.4823 14.8612C85.0504 14.213 85.4186 13.4385 85.5813 12.5432L85.627 12.2877H82.3298L82.2842 12.5432C82.1786 13.1172 81.9359 13.5264 81.5562 13.7736C81.1766 14.0208 80.5514 14.1444 79.6836 14.1444C78.9728 14.1444 78.4332 14.0757 78.065 13.9411C77.6967 13.8065 77.4683 13.5566 77.377 13.1941C77.2856 12.8315 77.3028 12.318 77.4227 11.6533C77.5454 10.9777 77.7196 10.4641 77.9422 10.1043C78.1649 9.74725 78.4846 9.50007 78.9014 9.36549C79.3182 9.23091 79.8834 9.16225 80.5942 9.16225C81.462 9.16225 82.0415 9.28584 82.3327 9.53303C82.621 9.78021 82.7152 10.1894 82.6096 10.7634L82.5639 11.0189H85.8611L85.9068 10.7634C86.0723 9.85711 85.9895 9.0826 85.6584 8.43718C85.3273 7.79176 84.7706 7.30014 83.9913 6.95683C83.2119 6.61352 82.2299 6.44324 81.0481 6.44324C79.8663 6.44324 78.7529 6.65746 77.8081 7.08591C76.8603 7.51436 76.0867 8.11859 75.4815 8.89859C74.8792 9.67859 74.4795 10.5987 74.2854 11.6533C74.0913 12.7107 74.1541 13.628 74.4709 14.408C74.7878 15.188 75.3416 15.7923 76.1324 16.2207Z" fill="url(#paint2_linear_2_111)"/>
    <path d="M88.1391 16.7123L88.7985 13.1172H90.9481L92.738 16.7123H96.2692L93.6515 11.5627L98.2047 6.59428H94.6706L91.4248 10.3542H89.3038L89.9946 6.59428H87.0429L85.1874 16.7123H88.1391Z" fill="url(#paint3_linear_2_111)"/>
    <path d="M102.706 12.5294L102.906 10.8376H103.112L103.397 12.5294L104.311 16.1081H107.891L110.114 12.5294L111.022 10.8376H111.225L110.805 12.5294L110.04 16.7123H112.989L114.845 6.59428H110.842L108.236 10.7909L106.769 13.4028H106.563L106.006 10.7909L104.845 6.59428H100.842L98.9897 16.7123H101.939L102.706 12.5294Z" fill="url(#paint4_linear_2_111)"/>
    <path d="M117.95 16.7123H120.902L121.49 13.5017L127.574 6.59428H123.902L121.876 8.99471L120.722 10.4146H120.517L119.883 8.99471L118.738 6.59428H115.079L118.538 13.5017L117.95 16.7123Z" fill="url(#paint5_linear_2_111)"/>
    <path d="M59.6809 25.1385L59.718 24.9353C61.0283 24.8803 61.9989 24.5672 62.6355 23.996C63.2692 23.4247 63.666 22.7051 63.8259 21.8345C63.9572 21.1149 63.9001 20.508 63.6489 20.0191C63.4005 19.5302 62.9581 19.1594 62.3272 18.9068C61.6963 18.6541 60.8627 18.5305 59.8322 18.5305H50.8029L48.2993 32.1942H57.8168C58.9472 32.1942 59.8893 32.0377 60.6486 31.7246C61.4051 31.4115 61.9989 30.9693 62.4271 30.398C62.8553 29.8268 63.1408 29.1621 63.2806 28.3986C63.4548 27.4483 63.2521 26.6793 62.6754 26.0943C62.0959 25.5093 61.0997 25.1907 59.6837 25.1358L59.6809 25.1385ZM59.364 27.7889C59.2955 28.1706 59.1585 28.4233 58.9587 28.5524C58.7588 28.6815 58.4191 28.7474 57.9367 28.7474H52.8925L53.2408 26.8523H58.285C58.7788 26.8523 59.1014 26.9127 59.247 27.0363C59.3954 27.1599 59.4325 27.4099 59.364 27.7916V27.7889ZM59.6523 22.8534C59.5953 23.1665 59.4839 23.3863 59.3183 23.5153C59.1528 23.6444 58.8673 23.7103 58.4562 23.7103H53.8145L54.1314 21.9773H58.6675C59.0786 21.9773 59.3583 22.046 59.5096 22.1806C59.6609 22.3179 59.7094 22.5403 59.6523 22.8534Z" fill="url(#paint6_linear_2_111)"/>
    <path d="M76.0524 27.473C75.7984 27.127 75.3188 26.866 74.6165 26.6875L74.6536 26.4843C75.5785 26.3744 76.3522 26.1602 76.9745 25.8416C77.5968 25.523 78.0878 25.1001 78.4475 24.5782C78.8043 24.0537 79.0498 23.433 79.1811 22.7134C79.3467 21.8153 79.2696 21.0572 78.9499 20.4393C78.633 19.8213 78.0792 19.3489 77.2913 19.0221C76.5035 18.6953 75.4815 18.5332 74.2226 18.5332H65.9355L63.4319 32.197H67.417L68.2677 27.5472H69.9006C70.423 27.5472 70.8255 27.5856 71.1081 27.6598C71.3907 27.7339 71.6077 27.8685 71.7561 28.058C71.9046 28.2475 72.033 28.5139 72.1415 28.8545L73.2234 32.1997H77.8223L76.6919 28.7749C76.5177 28.2585 76.3036 27.8273 76.0496 27.4813L76.0524 27.473ZM74.3282 24.4437C74.057 24.6057 73.6345 24.6881 73.055 24.6881H68.7958L69.2926 21.9773H73.5517C74.1312 21.9773 74.5252 22.0652 74.7336 22.241C74.9419 22.4168 74.9962 22.7793 74.8963 23.3231C74.7878 23.9081 74.5994 24.2816 74.3311 24.4437H74.3282Z" fill="url(#paint7_linear_2_111)"/>
    <path d="M86.5776 18.5305L77.9479 32.1942H82.4212L83.9856 29.6647H90.7283L91.3449 32.1942H95.9238L92.2812 18.5305H86.5805H86.5776ZM86.1152 26.2179L87.2998 24.3008L88.633 21.9965H88.9099L89.4209 24.3008L89.889 26.2179H86.118H86.1152Z" fill="url(#paint8_linear_2_111)"/>
    <path d="M110.802 26.2179H106.352L106.289 26.5639C106.146 27.3385 105.818 27.8932 105.307 28.2256C104.793 28.5579 103.951 28.7254 102.778 28.7254C101.816 28.7254 101.088 28.6348 100.591 28.4508C100.094 28.2668 99.7862 27.9317 99.6634 27.4428C99.5407 26.9539 99.5635 26.2591 99.7262 25.3637C99.8918 24.4519 100.126 23.757 100.428 23.2737C100.728 22.7903 101.162 22.458 101.724 22.2739C102.287 22.0899 103.049 21.9993 104.011 21.9993C105.184 21.9993 105.967 22.1668 106.358 22.4992C106.749 22.8315 106.874 23.3863 106.732 24.1608L106.669 24.5068H111.119L111.182 24.1608C111.408 22.9358 111.293 21.8894 110.845 21.0216C110.397 20.1509 109.646 19.4863 108.593 19.0221C107.539 18.5607 106.215 18.33 104.619 18.33C103.023 18.33 101.522 18.6184 100.243 19.1979C98.964 19.7747 97.9164 20.5904 97.1028 21.645C96.2863 22.6996 95.7497 23.9383 95.487 25.3665C95.2244 26.7947 95.3101 28.0333 95.7383 29.088C96.1665 30.1426 96.9144 30.9583 97.982 31.5351C99.0497 32.1118 100.403 32.403 102.041 32.403C103.68 32.403 105.047 32.1723 106.269 31.7108C107.491 31.2494 108.487 30.5793 109.255 29.7032C110.023 28.827 110.52 27.7834 110.74 26.5722L110.802 26.2261V26.2179Z" fill="url(#paint9_linear_2_111)"/>
    <path d="M128.005 18.5305H123.237L118.852 23.6087H115.989L116.92 18.5305H112.935L110.431 32.1942H114.416L115.307 27.3412H118.21L120.628 32.1942H125.395L121.858 25.2401L128.005 18.5305Z" fill="url(#paint10_linear_2_111)"/>
    <path d="M129.398 18.5305H128.319L125.815 32.1942H126.894H129.797H138.424L139.055 28.7474H130.431L130.745 27.0336H139.052L139.68 23.6087H131.373L131.67 21.9773H140.297L140.928 18.5305H132.304H129.398Z" fill="url(#paint11_linear_2_111)"/>
    <path d="M150.742 18.5305H146.757H141.733L141.102 21.9773H146.126L144.253 32.1942H148.238L150.111 21.9773H155.113L155.743 18.5305H150.742Z" fill="url(#paint12_linear_2_111)"/>
    <path d="M40.4632 16.5365H29.6697C28.7362 16.5365 28.0854 15.6439 28.4051 14.798L29.5184 11.8538C29.6212 11.5846 29.4128 11.299 29.1159 11.299H12.5046L12.9984 9.99718H29.7182C30.6631 9.99718 31.3197 10.9008 30.9971 11.7549L29.8695 14.7376C29.7725 14.9903 29.9466 15.2622 30.2235 15.2979L40.4604 16.5338L40.4632 16.5365Z" fill="white"/>
    <path d="M19.3643 23.0732H9.96105C9.03043 23.0732 8.38527 22.1833 8.70214 21.3429L10.4406 16.748C10.6376 16.2289 11.1514 15.8829 11.7252 15.8829H21.0343C22.0021 15.8829 22.6758 16.8085 22.3446 17.6846L20.629 22.219C20.4348 22.7326 19.9296 23.0732 19.3615 23.0732H19.3643ZM10.5976 21.7713H19.056C19.2387 21.7713 19.4014 21.6615 19.4643 21.4967L20.8859 17.7368C20.9858 17.4704 20.7803 17.1875 20.4862 17.1875H12.0079C11.8337 17.1875 11.6767 17.2918 11.6168 17.4511L10.1923 21.2138C10.0895 21.483 10.2979 21.7713 10.5976 21.7713Z" fill="white"/>
    <path d="M23.5379 28.9726H5.81894L6.3128 27.6708H23.2324C23.4151 27.6708 23.5807 27.5609 23.6435 27.3934L25.185 23.3176C25.3877 22.782 25.9187 22.425 26.5096 22.425H37.7056L26.738 23.6966C26.5724 23.7158 26.4354 23.8229 26.3783 23.9713L24.8082 28.1157C24.6141 28.6293 24.106 28.9726 23.535 28.9726H23.5379Z" fill="white"/>
    <path d="M37.954 22.4222L37.3202 22.4689L26.7408 23.6966C26.5752 23.7158 26.4382 23.8229 26.3811 23.9713L24.8111 28.1157C24.6169 28.6293 24.1088 28.9726 23.5379 28.9726H5.81892L6.06442 28.3217L4.36304 32.8177C4.10897 33.4878 4.62567 34.1991 5.36788 34.1991H35.7159C38.2794 34.1991 40.5717 32.6556 41.4481 30.3376L42.2217 28.2915C43.3008 25.4406 41.1055 22.425 37.9511 22.425L37.954 22.4222Z" fill="#D22737"/>
    <path d="M42.7013 4.76239H15.7275C15.2793 4.76239 14.8768 5.03154 14.7227 5.43802L12.9984 9.99718H29.7183C30.6632 9.99718 31.3197 10.9008 30.9971 11.7549L29.8696 14.7376C29.7725 14.9903 29.9466 15.2622 30.2235 15.2979L40.4604 16.5338C43.0239 16.5338 45.3162 14.9903 46.1926 12.6722L46.9662 10.6261C48.0452 7.77528 45.85 4.75964 42.6956 4.75964L42.7013 4.76239Z" fill="#D22737"/>
    <path d="M12.0079 17.1875C11.8337 17.1875 11.6767 17.2918 11.6168 17.4511L10.1923 21.2138C10.0895 21.483 10.2979 21.7713 10.5976 21.7713H19.056C19.2387 21.7713 19.4015 21.6615 19.4643 21.4967L20.8859 17.7368C20.9858 17.4704 20.7803 17.1875 20.4862 17.1875H12.0079Z" fill="#D22737"/>
    <path d="M155.846 35.1494V35.3527H155.438V36.3799H155.184V35.3527H154.773V35.1494H155.846ZM157.231 36.3826L157.182 35.6575C157.176 35.5614 157.176 35.4433 157.174 35.3142H157.159C157.125 35.4241 157.088 35.5669 157.051 35.6822L156.82 36.3661H156.557L156.326 35.663C156.303 35.5669 156.266 35.4241 156.237 35.3142H156.223C156.223 35.4268 156.217 35.5449 156.214 35.6575L156.169 36.3826H155.923L156.017 35.1494H156.4L156.623 35.7509C156.651 35.847 156.674 35.9377 156.708 36.064H156.714C156.748 35.9514 156.774 35.847 156.802 35.7564L157.025 35.1494H157.393L157.493 36.3826H157.239H157.231Z" fill="white"/>
  </g>
  <defs>
    <linearGradient id="paint0_linear_2_111" x1="57.1088" y1="16.7123" x2="57.1088" y2="6.59428" gradientUnits="userSpaceOnUse">
      <stop stop-color="white"/>
      <stop offset="0.54" stop-color="#DCDEE4"/>
      <stop offset="0.56" stop-color="#FCFCFC"/>
    </linearGradient>
    <linearGradient id="paint1_linear_2_111" x1="67.8795" y1="0.274637" x2="67.8795" y2="0.274637" gradientUnits="userSpaceOnUse">
      <stop stop-color="white"/>
      <stop offset="0.54" stop-color="#DCDEE4"/>
      <stop offset="0.56" stop-color="#FCFCFC"/>
    </linearGradient>
    <linearGradient id="paint2_linear_2_111" x1="80.0832" y1="16.8634" x2="80.0832" y2="6.44324" gradientUnits="userSpaceOnUse">
      <stop stop-color="white"/>
      <stop offset="0.54" stop-color="#DCDEE4"/>
      <stop offset="0.56" stop-color="#FCFCFC"/>
    </linearGradient>
    <linearGradient id="paint3_linear_2_111" x1="91.696" y1="0.274637" x2="91.696" y2="0.274637" gradientUnits="userSpaceOnUse">
      <stop stop-color="white"/>
      <stop offset="0.54" stop-color="#DCDEE4"/>
      <stop offset="0.56" stop-color="#FCFCFC"/>
    </linearGradient>
    <linearGradient id="paint4_linear_2_111" x1="106.917" y1="0.274637" x2="106.917" y2="0.274637" gradientUnits="userSpaceOnUse">
      <stop stop-color="white"/>
      <stop offset="0.54" stop-color="#DCDEE4"/>
      <stop offset="0.56" stop-color="#FCFCFC"/>
    </linearGradient>
    <linearGradient id="paint5_linear_2_111" x1="121.327" y1="0.274637" x2="121.327" y2="0.274637" gradientUnits="userSpaceOnUse">
      <stop stop-color="white"/>
      <stop offset="0.54" stop-color="#DCDEE4"/>
      <stop offset="0.56" stop-color="#FCFCFC"/>
    </linearGradient>
    <linearGradient id="paint6_linear_2_111" x1="56.0983" y1="32.1942" x2="56.0983" y2="18.5305" gradientUnits="userSpaceOnUse">
      <stop stop-color="white"/>
      <stop offset="0.54" stop-color="#DCDEE4"/>
      <stop offset="0.56" stop-color="#FCFCFC"/>
    </linearGradient>
    <linearGradient id="paint7_linear_2_111" x1="71.3479" y1="32.1942" x2="71.3479" y2="18.5305" gradientUnits="userSpaceOnUse">
      <stop stop-color="white"/>
      <stop offset="0.54" stop-color="#DCDEE4"/>
      <stop offset="0.56" stop-color="#FCFCFC"/>
    </linearGradient>
    <linearGradient id="paint8_linear_2_111" x1="86.9344" y1="32.1942" x2="86.9344" y2="18.5305" gradientUnits="userSpaceOnUse">
      <stop stop-color="white"/>
      <stop offset="0.54" stop-color="#DCDEE4"/>
      <stop offset="0.56" stop-color="#FCFCFC"/>
    </linearGradient>
    <linearGradient id="paint9_linear_2_111" x1="103.315" y1="32.3975" x2="103.315" y2="18.3273" gradientUnits="userSpaceOnUse">
      <stop stop-color="white"/>
      <stop offset="0.54" stop-color="#DCDEE4"/>
      <stop offset="0.56" stop-color="#FCFCFC"/>
    </linearGradient>
    <linearGradient id="paint10_linear_2_111" x1="119.218" y1="32.1942" x2="119.218" y2="18.5305" gradientUnits="userSpaceOnUse">
      <stop stop-color="white"/>
      <stop offset="0.54" stop-color="#DCDEE4"/>
      <stop offset="0.56" stop-color="#FCFCFC"/>
    </linearGradient>
    <linearGradient id="paint11_linear_2_111" x1="133.371" y1="32.1942" x2="133.371" y2="18.5305" gradientUnits="userSpaceOnUse">
      <stop stop-color="white"/>
      <stop offset="0.54" stop-color="#DCDEE4"/>
      <stop offset="0.56" stop-color="#FCFCFC"/>
    </linearGradient>
    <linearGradient id="paint12_linear_2_111" x1="148.424" y1="32.1942" x2="148.424" y2="18.5305" gradientUnits="userSpaceOnUse">
      <stop stop-color="white"/>
      <stop offset="0.54" stop-color="#DCDEE4"/>
      <stop offset="0.56" stop-color="#FCFCFC"/>
    </linearGradient>
    <clipPath id="clip0_2_111">
      <rect width="161.229" height="38.2914" fill="white" transform="translate(-0.0017395 0.274643)"/>
    </clipPath>
  </defs>
</svg>