<svg xmlns="http://www.w3.org/2000/svg" width="16" height="17" viewBox="0 0 16 17" fill="none">
  <path fill-rule="evenodd" clip-rule="evenodd" d="M7.99967 1.16667C8.36786 1.16667 8.66634 1.46515 8.66634 1.83334V2.50001H9.33301C11.174 2.50001 12.6663 3.99239 12.6663 5.83334C12.6663 6.20153 12.3679 6.50001 11.9997 6.50001C11.6315 6.50001 11.333 6.20153 11.333 5.83334C11.333 4.72877 10.4376 3.83334 9.33301 3.83334H8.66634V7.83334H9.33301C11.174 7.83334 12.6663 9.32572 12.6663 11.1667C12.6663 13.0076 11.174 14.5 9.33301 14.5H8.66634V15.1667C8.66634 15.5349 8.36786 15.8333 7.99967 15.8333C7.63148 15.8333 7.33301 15.5349 7.33301 15.1667V14.5H6.66634C4.82539 14.5 3.33301 13.0076 3.33301 11.1667C3.33301 10.7985 3.63148 10.5 3.99967 10.5C4.36786 10.5 4.66634 10.7985 4.66634 11.1667C4.66634 12.2712 5.56177 13.1667 6.66634 13.1667H7.33301V9.16667H6.66634C4.82539 9.16667 3.33301 7.67429 3.33301 5.83334C3.33301 3.99239 4.82539 2.50001 6.66634 2.50001H7.33301V1.83334C7.33301 1.46515 7.63148 1.16667 7.99967 1.16667ZM7.33301 3.83334H6.66634C5.56177 3.83334 4.66634 4.72877 4.66634 5.83334C4.66634 6.93791 5.56177 7.83334 6.66634 7.83334H7.33301V3.83334ZM8.66634 9.16667V13.1667H9.33301C10.4376 13.1667 11.333 12.2712 11.333 11.1667C11.333 10.0621 10.4376 9.16667 9.33301 9.16667H8.66634Z" fill="currentColor"/>
</svg>